<svg version="1.1" id="Layer_1" xmlns="http://www.w3.org/2000/svg" x="0" y="0" viewBox="0 0 512 512" xml:space="preserve"><style>.st0{fill:#ffbbc3}.st1{fill:#ffd4da}.st4{fill:#ff7676}</style><path class="st0" d="M503.1 233v88.8c0 9.4-7.6 17.1-17.1 17.1h-39.5c-1.1 27.3-23.5 49.1-51.1 49.1-27.5 0-50-21.8-51.1-49h-177c-1.1 27.3-23.6 49-51.1 49-27.9 0-51.2-22.5-51.2-51.4H25.6c-9.4 0-17.1-7.6-17.1-17.1V277c0-15.3 10.2-28.8 25-32.9 98.3-27.3 95.8-26.6 95.9-26.7 92.5-98.2 233.8-112.2 352.7-25.8 13.2 9.7 21 25.1 21 41.4z"/><path class="st1" d="M430.7 161.3l-25.2 37.2c-9.7 12-24.3 19-39.8 19H129.4c77.1-81.8 191.2-108.2 301.3-56.2z"/><path class="st0" d="M446.6 338.9c-1.1 27.3-23.5 49.1-51.1 49.1-27.5 0-50-21.8-51.1-49-1.3-28.6 21.7-53.3 51.1-53.3 29.4 0 52.4 24.8 51.1 53.2zM167.3 339c-1.1 27.3-23.6 49-51.1 49-28.3 0-51.2-22.9-51.2-51.1 0-28.2 22.9-51.2 51.2-51.2 29.5 0 52.4 24.7 51.1 53.3z"/><path d="M503.3 233v88.8c0 9.4-7.6 17.1-17.1 17.1-8 0-14.4-6.5-14.4-14.4v-73.3c0-16.4-7.8-31.7-21-41.3-6.1-4.4-13.3-9.3-21.5-14.3-8.3-5.1-10.7-16.1-5.2-24.1l6.8-10.1c21.4 10.1 38.9 21.3 51.4 30.4 13.2 9.5 21 24.9 21 41.2z" fill="#ffa4af"/><path class="st1" d="M141.9 292.4c6.9 4 3.9 14.4-4 14.4-26.9 0-51.5 21.5-51.4 51.5 0 8-10.4 11-14.4 4.1-19.7-33.9 4.7-76.8 44.3-76.8 9.3-.1 18 2.4 25.5 6.8zM421 292.4c6.9 4 3.9 14.4-4 14.4-26.9 0-51.5 21.5-51.4 51.5 0 8-10.4 11-14.4 4.1-19.7-33.9 4.7-76.8 44.3-76.8 9.3-.1 18 2.4 25.5 6.8z"/><path class="st1" d="M129.6 217.5c14.4 0 17.8 20.2 4.1 24.8-34.4 11.7-68 23.1-68 23.2-14.8 4.1-25 17.5-25 32.9v23.4c0 8.2-6.7 14.9-14.9 14.9-9.4 0-17.1-7.6-17.1-17.1V277c0-15.3 10.2-28.8 25-32.9 98.2-27.3 95.8-26.5 95.9-26.6z"/><path d="M430.7 161.3l-8.9 13.1c-3.3 4.8-9.4 7-15 5.1-81.5-26.5-162.9-11.6-227.6 35.4-2.3 1.7-5 2.6-7.8 2.6h-42c75.9-80.6 190-108.8 301.3-56.2z" fill="#ffebee"/><path class="st4" d="M511.7 233v105.9c0 4.7-3.8 8.5-8.5 8.5h-20.3c-4.7 0-8.5-3.8-8.5-8.5s3.8-8.5 8.5-8.5h11.7V233c0-13.6-6.6-26.5-17.6-34.5-32.6-23.7-95.4-59.3-173.2-55.3l5.6 42.8c.6 4.7-2.7 8.9-7.4 9.6-4.7.6-8.9-2.7-9.6-7.4l-5.6-43.4c-50.3 6.3-97.4 28.4-136.6 64.2h215.5c12.9 0 25-5.8 33.2-15.9 3-3.7 8.3-4.2 12-1.3s4.2 8.3 1.3 12c-11.4 14.1-28.3 22.2-46.4 22.2h-235l-94.9 26.4c-11 3.1-18.7 13.2-18.7 24.7v51.1H30c4.7 0 8.5 3.8 8.5 8.5s-3.8 8.5-8.5 8.5H8.5c-4.7 0-8.5-3.8-8.5-8.5V277c0-19.1 12.8-36 31.2-41.1l93.6-26c92.9-97 237.1-116 362.2-25.2 15.5 11.2 24.7 29.3 24.7 48.3zM175.9 336.9c0 32.9-26.8 59.7-59.7 59.7s-59.7-26.8-59.7-59.7 26.8-59.7 59.7-59.7 59.7 26.7 59.7 59.7zm-17.1 0c0-23.5-19.1-42.6-42.6-42.6s-42.6 19.1-42.6 42.6 19.1 42.6 42.6 42.6 42.6-19.1 42.6-42.6zm296.4 0c0 32.9-26.8 59.7-59.7 59.7s-59.7-26.8-59.7-59.7 26.8-59.7 59.7-59.7 59.7 26.7 59.7 59.7zm-17.1 0c0-23.5-19.1-42.6-42.6-42.6s-42.6 19.1-42.6 42.6 19.1 42.6 42.6 42.6 42.6-19.1 42.6-42.6zm-125.8-6.4H202.5c-4.7 0-8.5 3.8-8.5 8.5s3.8 8.5 8.5 8.5h109.8c4.7 0 8.5-3.8 8.5-8.5.1-4.7-3.8-8.5-8.5-8.5z"/><path class="st4" d="M92.9 92.9c21.2-21.2 45.8-37.8 73.3-49.4 28.4-12 58.6-18.1 89.7-18.1s61.3 6.1 89.7 18.1c27.4 11.6 52.1 28.2 73.3 49.4 19.9 19.9 35.8 42.9 47.3 68.4h21.3C450 70.1 360.4 5.8 255.8 5.8 127.6 5.8 22 102.3 7.5 226.7h19.7c2.6-20.8 8.1-41.1 16.3-60.5 11.6-27.5 28.2-52.2 49.4-73.3zm325.9 325.9c-21.2 21.2-45.8 37.8-73.3 49.4-28.4 12-58.6 18.1-89.7 18.1s-61.3-6.1-89.7-18.1c-27.4-11.6-52.1-28.2-73.3-49.4-18.1-18.1-32.9-38.8-44.1-61.7H27.2c38.9 87.6 126.6 148.7 228.6 148.7 100.1 0 186.5-58.8 226.4-143.8h-21.8c-10.8 20.9-24.8 40-41.6 56.8z"/></svg>