<svg version="1.1" id="Layer_1" xmlns="http://www.w3.org/2000/svg" x="0" y="0" viewBox="0 0 512 512" xml:space="preserve"><style>.st0{fill:#fff2d4}.st5{fill:#ffc578}</style><path class="st0" d="M464 133.2v245.6c0 15.8-12.8 28.7-28.7 28.7H76.7c-15.8 0-28.7-12.8-28.7-28.7V133.2c0-15.8 12.8-28.7 28.7-28.7h358.6c15.8 0 28.7 12.9 28.7 28.7z"/><path d="M464 133.2v22.2c0 8.4-7.2 14.3-13.7 14.3-150.6 7.4-268.2 97.7-317.4 228.5-2.1 5.6-7.4 9.3-13.4 9.3H76.7c-15.8 0-28.7-12.8-28.7-28.7V133.2c0-15.8 12.8-28.7 28.7-28.7h358.6c15.8 0 28.7 12.9 28.7 28.7z" fill="#fff9eb"/><path d="M420.9 319.6c0 27.8-34.2 40.9-52.9 20.7-18.7 20.3-52.9 7.1-52.9-20.7 0-27.8 34.2-40.9 52.9-20.7 18.7-20.2 52.9-7 52.9 20.7z" fill="#ffe3a4"/><circle cx="345.6" cy="319.6" r="30.5" fill="#fff2bb"/><path d="M48 169.1h416v61H48v-61z" fill="#fff0b3"/><path class="st0" d="M454.1 169.1c-8.9 2.9-97.3-1.5-189.4 60.8-.3.2 9.8.2-216.7.2v-61h406.1z"/><path class="st5" d="M471.1 133.2v245.6c0 19.8-16.1 35.9-35.9 35.9H76.7c-19.8 0-35.9-16.1-35.9-35.9V271.2c0-4 3.2-7.2 7.2-7.2s7.2 3.2 7.2 7.2v107.6c0 11.9 9.7 21.5 21.5 21.5h358.6c11.9 0 21.5-9.7 21.5-21.5V133.2c0-11.9-9.7-21.5-21.5-21.5H76.7c-11.9 0-21.5 9.7-21.5 21.5v28.7h367.5c4 0 7.2 3.2 7.2 7.2s-3.2 7.2-7.2 7.2H55.2v46.6h367.5c4 0 7.2 3.2 7.2 7.2s-3.2 7.2-7.2 7.2H48c-4 0-7.2-3.2-7.2-7.2v-96.8c0-19.8 16.1-35.9 35.9-35.9h358.6c19.7-.1 35.8 16 35.8 35.8zm-57.3 186.4c0-18.4-20.5-29.6-36-19.6 15.2 24.9-2.8 57.2-32.2 57.2-20.8 0-37.6-16.9-37.6-37.6 0-30.9 35.4-48.6 60.1-30.2 24.8-18.4 60.1-.6 60.1 30.2 0 20.8-16.9 37.6-37.6 37.6-4 0-7.2-3.2-7.2-7.2s3.2-7.2 7.2-7.2c12.7.1 23.2-10.3 23.2-23.2zm-44.9 0c0-12.9-10.5-23.3-23.3-23.3-12.9 0-23.3 10.5-23.3 23.3 0 12.9 10.5 23.3 23.3 23.3 12.9 0 23.3-10.4 23.3-23.3zm-262.6-15.2h60.1c4 0 7.2-3.2 7.2-7.2s-3.2-7.2-7.2-7.2h-60.1c-4 0-7.2 3.2-7.2 7.2s3.2 7.2 7.2 7.2zm0 44.8h60.1c4 0 7.2-3.2 7.2-7.2s-3.2-7.2-7.2-7.2h-60.1c-4 0-7.2 3.2-7.2 7.2s3.2 7.2 7.2 7.2zM486.3 158.8v194.1c12.6-29.8 19.5-62.6 19.5-97 0-34.5-6.9-67.3-19.5-97.1zM255.8 5.8c-71.5 0-136 30-181.6 78.2h28c19-17 40.4-30.6 63.9-40.5 28.4-12 58.6-18.1 89.7-18.1s61.3 6.1 89.7 18.1c23.5 9.9 45 23.5 63.9 40.5h28C391.8 35.9 327.3 5.8 255.8 5.8zM25.4 352.9V158.8c-12.6 29.8-19.5 62.6-19.5 97-.1 34.4 6.9 67.2 19.5 97.1zM409 428c-18.9 16.8-40.2 30.3-63.5 40.2-28.4 12-58.6 18.1-89.7 18.1s-61.3-6.1-89.7-18.1c-23.3-9.9-44.6-23.3-63.5-40.2h-28c45.5 47.9 109.9 77.8 181.3 77.8s135.7-29.9 181.3-77.8H409z"/></svg>