<svg version="1.1" id="Layer_1" xmlns="http://www.w3.org/2000/svg" x="0" y="0" viewBox="0 0 562.2 124.2" xml:space="preserve"><style>.st3{fill:#fff}.st5{fill:#aefffd}</style><g id="Icon"><path d="M99 6.7v85.6c0 3.7-3 6.7-6.7 6.7H42.7C39 99 36 96 36 92.3V6.7C36 3 39 0 42.7 0h49.6C96 0 99 3 99 6.7z" fill="#b1fffc"/><path fill="#5acdd0" d="M70 0h17v99H70z"/><g><path d="M99 39.7v9.6c0 3.7-3 6.7-6.7 6.7H42.7C39 56 36 53 36 49.3V33h56.3c3.7 0 6.7 3 6.7 6.7z" opacity=".2" fill="#193d3b"/><path class="st3" d="M6.7 36h85.6c3.7 0 6.7 3 6.7 6.7v49.6c0 3.7-3 6.7-6.7 6.7H6.7C3 99 0 96 0 92.3V42.7C0 39 3 36 6.7 36z"/><path d="M85 76H74c-3.9 0-7-3.1-7-7v-3c0-3.9 3.1-7 7-7h11c3.9 0 7 3.1 7 7v3c0 3.9-3.1 7-7 7z" fill="#ccc"/></g></g><path class="st5" d="M140.2 11.7h55.9V26h-39.5v22.4h37V63h-37v36.4h-16.4V11.7zM217.1 10.2c3.2 0 5.7.9 7.4 2.8 1.7 1.9 2.6 4.1 2.6 6.6s-.9 4.7-2.6 6.6c-1.7 1.9-4.2 2.8-7.4 2.8s-5.7-.9-7.4-2.8c-1.7-1.9-2.6-4.1-2.6-6.6s.9-4.7 2.6-6.6c1.8-1.9 4.2-2.8 7.4-2.8zm8.4 89.1h-16.6V36.6h16.6v62.7zM259.5 99.3h-16.6V36.6h14.8l1.8 8.2c1-1 2.1-2.1 3.6-3.3s3-2.2 4.7-3.2c1.7-1 3.7-1.7 5.8-2.3 2.1-.6 4.4-.9 6.7-.9 6.2 0 11.1 2.2 14.8 6.5 3.7 4.3 5.5 10.4 5.5 18.3v39.5H284v-39c0-4-.7-7-2.1-9-1.4-2-3.7-3.1-7-3.1-3 0-5.9.9-8.6 2.6-2.7 1.7-5 3.6-6.7 5.7v42.7z"/><path class="st3" d="M340.6 100.9c-5.8 0-11-.6-15.6-1.8-4.6-1.2-8.7-2.8-12.3-4.9l4.3-13.8c3.1 1.7 6.7 3.2 10.6 4.4 3.9 1.2 7.9 1.8 11.8 1.8 4.9 0 9.1-1 12.5-2.9s5.1-5 5.1-9c0-2-.5-3.7-1.5-5.1-1-1.4-2.3-2.6-4-3.6-1.7-1-3.6-1.9-5.7-2.7-2.1-.7-4.3-1.5-6.6-2.3-2.7-.9-5.5-1.9-8.6-3.2-3-1.3-5.8-2.9-8.4-4.9-2.6-2-4.7-4.6-6.4-7.6-1.7-3-2.5-6.8-2.5-11.2 0-3.3.6-6.4 1.8-9.4 1.2-2.9 3-5.5 5.5-7.7s5.7-3.9 9.6-5.1c3.9-1.3 8.6-1.9 14-1.9 4.9 0 9.5.5 13.6 1.4 4.1 1 8 2.4 11.8 4.3l-4.3 13c-3.3-1.5-6.7-2.6-10.3-3.4-3.6-.8-6.8-1.2-9.9-1.2-5.2 0-9.1.9-11.6 2.7-2.5 1.8-3.8 4.1-3.8 6.9 0 2 .5 3.7 1.4 5.1 1 1.4 2.2 2.7 3.8 3.7 1.6 1 3.3 2 5.3 2.7 2 .8 4 1.5 6.1 2.2 3.1 1 6.3 2.2 9.5 3.6 3.2 1.3 6.1 3.1 8.7 5.1s4.7 4.6 6.4 7.6c1.6 3 2.5 6.7 2.5 11 0 4.4-.8 8.2-2.5 11.4-1.7 3.2-4 5.9-6.9 8.1-2.9 2.2-6.3 3.8-10.3 4.8-4 1.4-8.4 1.9-13.1 1.9zM405.2 80.2c0 2.6.5 4.5 1.6 5.7s2.6 1.8 4.8 1.8c2.9 0 5.7-1 8.6-3l3.4 12.1c-2.2 1.4-4.4 2.4-6.8 3.1-2.4.7-5 1-8 1-7 0-12.1-1.7-15.1-5.1-3.1-3.4-4.6-8.6-4.6-15.7V48.3h-9.6V36.6h9.9l3.9-17.9h12.1v17.9h17.8v11.7h-17.8v31.9zM447.4 73.6c1 5.1 3.1 8.8 6.3 11.1 3.2 2.3 7 3.4 11.1 3.4 5.6 0 10.9-1.3 15.9-3.9l3.6 11.6c-2.8 1.6-6 2.9-9.6 3.8-3.6.9-7.5 1.3-11.8 1.3-5.4 0-10.1-.8-14-2.3-4-1.6-7.3-3.8-10-6.7-2.7-2.9-4.7-6.4-6-10.5-1.3-4.1-2-8.6-2-13.6 0-4.5.6-8.8 1.8-12.7 1.2-4 3.1-7.5 5.5-10.4 2.5-2.9 5.6-5.3 9.5-7 3.9-1.7 8.4-2.6 13.6-2.6 4.2 0 8 .7 11.3 2 3.3 1.3 6.1 3.2 8.4 5.6 2.3 2.4 4 5.2 5.2 8.5 1.2 3.3 1.8 6.8 1.8 10.7 0 2-.2 4.1-.5 6.2-.3 2.2-.8 4-1.3 5.6h-38.8zm14.1-26.5c-4.2 0-7.5 1.5-10.1 4.5-2.6 3-4.1 7.1-4.5 12.3h25.5v-1.7c0-4.9-.9-8.7-2.7-11.2-1.8-2.6-4.5-3.9-8.2-3.9zM501.2 36.6H516l1.8 8.2c.9-1.1 2-2.3 3.3-3.4 1.3-1.1 2.9-2.2 4.5-3.1 1.7-1 3.5-1.7 5.5-2.3 2-.6 4.1-.9 6.4-.9 4.2 0 7.8.9 10.9 2.7 3.1 1.8 5.6 4.1 7.7 7.1 2 2.9 3.6 6.3 4.5 10.2 1 3.9 1.5 7.9 1.5 12 0 5.5-.7 10.3-2.1 14.5-1.4 4.2-3.3 7.7-5.7 10.6-2.4 2.9-5.1 5-8.3 6.6-3.1 1.5-6.4 2.3-9.9 2.3-4.9 0-8.7-1-11.5-3-2.8-2-5.1-4.2-7-6.8v33H501V36.6zm16.6 33.2c0 5.5 1.3 9.8 3.8 13 2.5 3.2 5.8 4.8 9.8 4.8 1.9 0 3.7-.4 5.5-1.1 1.7-.7 3.2-1.9 4.5-3.5 1.3-1.6 2.3-3.7 3.1-6.4.7-2.6 1.1-5.9 1.1-9.7 0-5.9-1.2-10.5-3.6-13.8-2.4-3.3-5.6-4.9-9.5-4.9-3.2 0-6 .8-8.3 2.5-2.3 1.6-4.4 3.6-6.2 5.9v13.2z"/></svg>