<svg xmlns="http://www.w3.org/2000/svg" viewBox="0 0 126 126"><path fill="#2fa8b8" d="M0 0h126v126H0z"/><path d="M112.5 20.2v85.6c0 3.7-3 6.7-6.7 6.7H56.2c-3.7 0-6.7-3-6.7-6.7V20.2c0-3.7 3-6.7 6.7-6.7h49.6c3.7 0 6.7 3 6.7 6.7z" fill="#b1fffc"/><path fill="#5acdd0" d="M83.5 13.5h17v99h-17z"/><g><path d="M112.5 53.2v9.6c0 3.7-3 6.7-6.7 6.7H56.2c-3.7 0-6.7-3-6.7-6.7V46.5h56.3c3.7 0 6.7 3 6.7 6.7z" opacity=".2" fill="#193d3b"/><path d="M20.2 49.5h85.6c3.7 0 6.7 3 6.7 6.7v49.6c0 3.7-3 6.7-6.7 6.7H20.2c-3.7 0-6.7-3-6.7-6.7V56.2c0-3.7 3-6.7 6.7-6.7z" fill="#fff"/><path d="M98.5 89.5h-11c-3.9 0-7-3.1-7-7v-3c0-3.9 3.1-7 7-7h11c3.9 0 7 3.1 7 7v3c0 3.9-3.1 7-7 7z" fill="#ccc"/></g></svg>