<svg version="1.1" id="Layer_1" xmlns="http://www.w3.org/2000/svg" x="0" y="0" viewBox="0 0 512 512" xml:space="preserve"><style>.st2{fill:#58dab4}</style><path d="M428 256c0 95-77 172-172 172-128.4 0-211.3-136-153.3-250 28.5-55.8 86.5-94 153.3-94 94.9 0 172 77 172 172z" fill="#a9ffdc"/><path d="M334.2 102.6c25.5 12.9 47 32 18.5 32.7-92.1 2.5-219.1 125.7-221.8 216.4-.8 28.5-15.3 7.7-28.2-17.8-24.9-48.8-24.9-107.1 0-156 46.1-90.3 152.1-115.5 231.5-75.3z" fill="#ccffeb"/><path class="st2" d="M439 299.5c-5 21.1-13.5 41-25.2 59-12.2 18.7-27.5 35-45.5 48.5-32.6 24.3-71.4 37.1-112 37.1-43.1 0-84.9-14.7-118.2-41.5v16l-.6.6-14.5 14.5-3.4 3.4v-66.3h66.3l-3.4 3.4-14.5 14.5-.6.6h-16.7C181 413 218.4 426 256.8 426c36.2 0 71.1-11.6 100.7-33.6 16.1-12 29.9-26.6 40.8-43.2 10.6-16.1 18.2-33.8 22.9-52.6 9.3-37.8 5.3-77.9-11.2-112.9l-.7-1.5 1.3-1 11.6-8.6 1.9-1.4 1.1 2.2C444.1 212.2 449 257 439 299.5z"/><path class="st2" d="M294.7 285.7v5.7c0 18.2-12.9 34.1-30.7 37.9l-3 .6v7.6c0 5.7-4.6 10.4-10.4 10.4-5.7 0-10.4-4.6-10.4-10.4v-10.6l-2.1-1.1c-12.9-6.7-21-19.9-21-34.4 0-5.7 4.6-10.4 10.4-10.4 5.7 0 10.4 4.6 10.4 10.4 0 9.9 8.1 18 18 18s18-8.1 18-18v-5.7c0-7.9-5.1-14.8-12.6-17.2l-16.9-5.3c-16.2-5.1-27.2-19.9-27.2-37v-5.7c0-16.4 10.4-31 25.8-36.5l2.5-.9v-8.7c0-5.7 4.6-10.4 10.4-10.4s10.4 4.6 10.4 10.4v8.7l2.5.9c15.4 5.5 25.8 20.2 25.8 36.5 0 5.7-4.6 10.4-10.4 10.4-5.7 0-10.4-4.6-10.4-10.4 0-9.9-8.1-18-18-18s-18 8.1-18 18v5.7c0 7.9 5.1 14.8 12.6 17.2l16.9 5.3c16.5 5.1 27.4 20 27.4 37z"/><path class="st2" d="M392.3 138.2v2H326l3.4-3.4 14.5-14.5.6-.6h15.7C330.6 98.7 293.7 86 255.9 86c-36.7 0-71.7 11.6-101.2 33.6-25.6 19-45.3 44.7-56.8 74.3-11.3 28.8-14.5 60.1-9.4 90.6 2.6 15.3 7.2 30.1 13.6 43.9l.7 1.5-1.3 1-11.5 8.5-1.9 1.4-1.1-2.2C67.9 299.8 63 255 73 212.5c5-21.1 13.5-41 25.2-59 12.2-18.7 27.5-35 45.5-48.5 32.6-24.2 71.4-37.1 112-37.1 43 0 84.7 14.7 118 41.3V92.5l.6-.6 14.5-14.5 3.4-3.4v4.8l.1 59.4z"/><path class="st2" d="M255.8 25.4c31.1 0 61.3 6.1 89.7 18.1 27.4 11.6 52.1 28.2 73.3 49.4 21.2 21.2 37.8 45.8 49.4 73.3 12 28.4 18.1 58.6 18.1 89.7s-6.1 61.3-18.1 89.7c-11.6 27.4-28.2 52.1-49.4 73.3-21.2 21.2-45.8 37.8-73.3 49.4-28.4 12-58.6 18.1-89.7 18.1s-61.3-6.1-89.7-18.1c-27.4-11.6-52.1-28.2-73.3-49.4-21.2-21.2-37.8-45.8-49.4-73.3-12-28.4-18.1-58.6-18.1-89.7s6.1-61.3 18.1-89.7c11.6-27.4 28.2-52.1 49.4-73.3 21.2-21.2 45.8-37.8 73.3-49.4 28.4-12 58.6-18.1 89.7-18.1m0-19.6c-138.1 0-250 111.9-250 250s111.9 250 250 250 250-111.9 250-250-111.9-250-250-250z"/></svg>