<svg width="40" height="40" fill="none" xmlns="http://www.w3.org/2000/svg"><g clip-path="url(#clip0)"><path d="M39.336 19.04v5.25c0 .46-.375.835-.836.835h-1.844a12.187 12.187 0 01-4.398 6.258.844.844 0 00-.344.672v2.492c0 1.101-.898 2-2 2H27c-1.102 0-2-.899-2-2a.837.837 0 00-.836-.836h-6.586a.837.837 0 00-.836.836c0 1.101-.898 2-2 2h-2.914c-1.101 0-2-.899-2-2v-2.492a.822.822 0 00-.336-.664c-7.64-5.727-5.883-17.508 2.836-20.883.063-3.899 3.25-7.04 7.164-7.04 3.985 0 6.688 3 7.11 6.321h.007c1.618.195 3.125.711 4.47 1.477 1.788-2.055 4.874.125 4.937 1.851.023.656-.36 1.29-.938 1.828a11.579 11.579 0 011.383 2.72c.117.327.43.554.781.554h1.242a.823.823 0 01.852.82z" fill="#ADF7EE"/><path d="M24.094 16.125h-9.188c-1.765-1.477-2.648-3.672-2.57-5.625.062-3.898 3.25-7.04 7.164-7.04 6.664 0 9.727 8.368 4.594 12.665z" fill="#ADF7EE"/><path d="M36.031 13.102c.086 2.148-4.226 4.093-5.46 3.078-1.157-.946-.516-5.203 1.765-5.719 1.602-.36 3.64 1.195 3.695 2.64zM13.344 14.29c-3.578 2.608-5.29 6.429-5.586 10.577-.11 1.485-2.196 1.703-2.61.274-1.757-5.993 1.336-12.375 7.188-14.641-.047 1.164.281 2.578 1.008 3.79z" fill="#E8F3FF"/><path d="M31.094 11.258c-.227.265-.422.57-.578.906a23.275 23.275 0 00-3.868-.867 7.549 7.549 0 00-.03-1.516h.007c1.61.196 3.125.711 4.469 1.477z" fill="#71EADE"/><path d="M22.266 3.992c.601.25.414 1.133-.235 1.133-5.695-.023-9.086 6.273-6.086 11h-1.039c-1.797-1.5-2.648-3.719-2.57-5.625.086-5.094 5.297-8.414 9.93-6.508z" fill="#E8F3FF"/><path d="M31.71 14.672c.368-3.156 2.743-4.078 3.688-2.977.375.43.61.93.633 1.414.047 1.165-1.203 2.274-2.547 2.875-.898.399-1.882-.335-1.773-1.312z" fill="#ADF7EE"/><path d="M35.398 15.406a.84.84 0 01-.297 1.164c-1.609.938-3.585 1.336-4.406.633-.367-.312-.047-.914.422-.789 1.274.344 3.29-.828 3.977-1.484.101.156.21.312.304.476zM38.664 22.969v2.82h-1.523a12.764 12.764 0 01-4.555 6.164v2.586a2.667 2.667 0 01-2.664 2.664h-2.914a2.667 2.667 0 01-2.664-2.664v-.164H17.43l-1.032 1.32c-.359.516-.96.852-1.632.852h-.461c-.547 0-.79-.57-.79-1.047l-.023-5.977a1.707 1.707 0 011.985-1.695l2.757.445c1.977.32 4 .016 5.79-.867l6.742-3.312a10.93 10.93 0 014.812-1.117h3.086v-.008z" fill="#71EADE"/><path d="M26.664 15.46H15.156A6.483 6.483 0 0113 10.626c0-3.586 2.914-6.5 6.5-6.5 4.148 0 7.266 3.867 6.336 7.953-.078.36.14.719.5.797.36.086.719-.14.797-.5 1.125-4.922-2.633-9.578-7.64-9.578-4.321 0-7.837 3.515-7.837 7.836 0 1.773.594 3.469 1.672 4.836h-1a.663.663 0 100 1.328h14.336a.664.664 0 00.664-.664.66.66 0 00-.664-.672zM16.75 33.04a.663.663 0 00-.664.663v.836c0 .414-.188.781-.484 1.031a1.349 1.349 0 01-.852.305h-2.914a1.34 1.34 0 01-1.336-1.336v-2.914a.68.68 0 00-.281-.547c-6.5-4.555-6.477-14.047-.156-18.578a.672.672 0 00.156-.93.672.672 0 00-.93-.156 12.705 12.705 0 00-5.281 9.625h-.485a.767.767 0 01-.765-.766A2.094 2.094 0 00.664 18.18a.664.664 0 100 1.328c.422 0 .766.344.766.765 0 1.157.937 2.094 2.093 2.094h.485c.203 3.992 2.242 7.422 5.156 9.594v2.578a2.667 2.667 0 002.664 2.664h2.914a2.676 2.676 0 002.672-2.672v-.836a.667.667 0 00-.664-.656zm22.586-15.5h-2.188A12.371 12.371 0 0035.945 15c.477-.563.782-1.219.758-1.93-.07-1.867-2.508-3.71-4.508-3.258-2.804.633-3.656 5.57-2.039 6.883 1.133.93 3.422.18 4.782-.78.46.78.82 1.616 1.085 2.483a.67.67 0 00.641.477h2.008v5.586h-2.008a.67.67 0 00-.64.477 11.41 11.41 0 01-4.47 6.125.694.694 0 00-.296.562v2.914a1.34 1.34 0 01-1.336 1.336h-2.914a1.34 1.34 0 01-1.336-1.336v-.836a.663.663 0 00-.664-.664h-5a.663.663 0 00-.04 1.328h4.384v.164a2.667 2.667 0 002.664 2.664h2.914a2.667 2.667 0 002.664-2.664v-2.586a12.751 12.751 0 004.554-6.164h2.196a.663.663 0 00.664-.664v-6.914a.675.675 0 00-.672-.664zm-5.914-2.267c-1.18.586-2.172.61-2.43.399-.258-.211-.469-1.133-.187-2.32.218-.946.78-2.032 1.68-2.235.085 0 .89-.234 1.945.578.554.43.914.977.93 1.438.03.687-.75 1.547-1.938 2.14z" fill="#2FA8B8"/></g><defs><clipPath id="clip0"><path fill="#fff" d="M0 0h40v40H0z"/></clipPath></defs></svg>