<svg width="37" height="37" fill="none" xmlns="http://www.w3.org/2000/svg"><path d="M33.3 4.314v10.4c0 .52-.607.809-1.012.476l-1.842-1.532a1.228 1.228 0 00-1.64.058L25.9 16.498v18.573c0 .52-.607.809-1.012.477l-1.9-1.583a1.224 1.224 0 00-1.576 0l-2.168 1.806a1.166 1.166 0 01-1.481 0l-2.168-1.806a1.224 1.224 0 00-1.575 0l-2.168 1.806a1.166 1.166 0 01-1.482 0l-2.168-1.806a1.224 1.224 0 00-1.575 0l-1.9 1.582a.617.617 0 01-1.013-.476V4.314c0-2.045 1.655-3.7 3.7-3.7H29.63a3.701 3.701 0 013.671 3.7z" fill="#71EADE"/><path d="M29.629.614a3.696 3.696 0 013.671 3.7v10.4c0 .52-.607.809-1.012.476l-1.842-1.532a1.228 1.228 0 00-1.64.058L25.9 16.498V4.38c0-2.045 1.677-3.78 3.729-3.765z" fill="#71EADE"/><path d="M29.6.614c-1.922 0-3.62 1.561-3.7 3.65-.022.477-.31.903-.752 1.098-11.07 4.72-18.21 15.306-18.406 27.367a2.448 2.448 0 01-.888 1.85l-1.15.961a.617.617 0 01-1.011-.477V4.314c0-2.045 1.655-3.7 3.7-3.7H29.6z" fill="#ADF7EE"/><path d="M32.903 16.506c-.037-.03-3.267-2.718-3.303-2.754l-.687.585a.61.61 0 01-.867-.064.61.61 0 01.065-.868l1.077-.925a.622.622 0 01.795-.007l2.688 2.24V4.314a3.089 3.089 0 00-3.085-3.085A3.084 3.084 0 0026.5 4.314V36.38a.614.614 0 11-1.229 0V4.314c0-1.207.499-2.298 1.301-3.085H7.4a3.089 3.089 0 00-3.086 3.085v30.75l2.689-2.241a.621.621 0 01.787 0l3.303 2.753 3.302-2.753a.621.621 0 01.788 0l3.302 2.753 3.303-2.753a.621.621 0 01.788 0l.932.773c.26.217.296.607.08.868a.618.618 0 01-.868.079l-.534-.448-3.288 2.76a.62.62 0 01-.788 0l-3.303-2.753-3.31 2.754a.62.62 0 01-.787 0l-3.303-2.754-3.31 2.754a.617.617 0 01-1.011-.477V4.314A4.32 4.32 0 017.4 0h22.2a4.32 4.32 0 014.314 4.314c0 12.582.008 11.75-.021 11.866-.102.441-.644.614-.99.326zM14.8 12.336a.614.614 0 01-.614-.614.614.614 0 10-1.229 0c0 .715.405 1.336 1.005 1.64v.361a.614.614 0 101.228 0v-.195a1.851 1.851 0 001.467-1.806v-.253a1.83 1.83 0 00-1.3-1.764l-.738-.231a.611.611 0 01-.433-.585v-.253a.614.614 0 111.228 0 .614.614 0 101.229 0c0-.802-.513-1.489-1.236-1.742v-.26a.614.614 0 10-1.229 0v.26a1.855 1.855 0 00-1.235 1.742v.253c0 .816.52 1.525 1.3 1.763l.738.231c.26.08.433.318.433.586v.253a.618.618 0 01-.614.614zm-5.55-1.547h1.077a.614.614 0 100-1.228H9.25a.614.614 0 100 1.228zm11.1-1.228h-1.077a.614.614 0 100 1.228h1.077a.614.614 0 100-1.228zm0 8.787H9.25a.614.614 0 100 1.229h11.1a.614.614 0 100-1.229zm0 5.55h-1.236a.614.614 0 100 1.229h1.236a.614.614 0 100-1.229zm-11.1 0a.614.614 0 100 1.229h7.386a.614.614 0 100-1.229H9.25z" fill="#2FA8B8"/></svg>