<svg width="45" height="45" fill="none" xmlns="http://www.w3.org/2000/svg"><path d="M6.328 33.75h7.031a.7.7 0 00.704-.703V6.328a.705.705 0 00-.704-.703H6.33a.705.705 0 00-.704.703v26.719c0 .387.316.703.703.703zM38.672 16.875H31.64a.705.705 0 00-.703.703v15.469c0 .387.316.703.703.703h7.03a.7.7 0 00.704-.703V17.578a.705.705 0 00-.703-.703z" fill="#ADF7EE"/><path d="M31.64 33.75h7.032a.705.705 0 00.703-.703V17.578a.705.705 0 00-.703-.703H31.64a.705.705 0 00-.703.703v5.625c0 .387.316.703.703.703a.705.705 0 00.703-.703v-4.922h5.625v14.063h-5.625v-4.922a.705.705 0 00-.703-.703.705.705 0 00-.703.703v5.625c0 .387.316.703.703.703zM18.984 33.75h7.032a.705.705 0 00.703-.703V11.953a.705.705 0 00-.703-.703h-7.032a.705.705 0 00-.703.703v8.438c0 .386.317.703.703.703a.705.705 0 00.703-.703v-7.735h5.625v19.688h-5.625v-7.735a.705.705 0 00-.703-.703.705.705 0 00-.703.703v8.438c0 .387.317.703.703.703zM6.328 33.75h7.031a.705.705 0 00.704-.703V6.328a.705.705 0 00-.704-.703H6.33a.705.705 0 00-.704.703v11.25c0 .387.316.703.703.703a.705.705 0 00.703-.703V7.031h5.625v25.313H7.031V21.797a.705.705 0 00-.703-.703.705.705 0 00-.703.703v11.25c0 .387.316.703.703.703zM6.328 39.375h32.344a.705.705 0 00.703-.703.705.705 0 00-.703-.703H6.328a.705.705 0 00-.703.703c0 .387.316.703.703.703zM6.328 36.563h32.344a.705.705 0 00.703-.704.705.705 0 00-.703-.703H6.328a.705.705 0 00-.703.703c0 .387.316.703.703.703z" fill="#2FA8B8"/><path d="M6.328 20.39a.703.703 0 100-1.406.703.703 0 000 1.407zM18.984 23.203a.703.703 0 100-1.406.703.703 0 000 1.406zM31.64 26.016a.703.703 0 100-1.407.703.703 0 000 1.407z" fill="#2FA8B8"/></svg>