<svg version="1.1" id="Layer_1" xmlns="http://www.w3.org/2000/svg" x="0" y="0" viewBox="0 0 512 512" xml:space="preserve"><style>.st0{fill:#aef1f4}.st1{fill:#c8fcfc}.st2{fill:#88e6ed}.st3{fill:#5fb9ce}</style><path class="st0" d="M456.5 235.3v58.3c0 5.1-4.2 9.3-9.3 9.3h-20.5c-8.2 27.4-25.3 52-48.8 69.4-2.3 1.7-3.8 4.5-3.8 7.5v27.7c0 12.2-10 22.2-22.2 22.2h-32.3c-12.2 0-22.2-10-22.2-22.2 0-5.1-4.2-9.3-9.3-9.3H215c-5.1 0-9.3 4.2-9.3 9.3 0 12.2-10 22.2-22.2 22.2h-32.3c-12.2 0-22.2-10-22.2-22.2v-27.7c0-2.9-1.4-5.6-3.7-7.4-84.8-63.5-65.3-194.3 31.5-231.7.7-43.3 36.1-78.1 79.5-78.1 44.2 0 74.2 33.3 78.9 70.1h.1c17.9 2.2 34.7 7.9 49.6 16.4 19.9-22.8 54.1 1.4 54.8 20.5.3 7.3-4 14.3-10.4 20.3 6.4 9.4 11.6 19.5 15.3 30.2 1.3 3.6 4.8 6.2 8.7 6.2h13.8c5.3-.2 9.4 3.9 9.4 9z"/><path class="st0" d="M287.4 203H185.5c-19.6-16.4-29.4-40.7-28.5-62.4.7-43.3 36.1-78.1 79.5-78.1 73.9 0 107.9 92.8 50.9 140.5z"/><path class="st1" d="M419.9 169.5c1 23.8-46.9 45.4-60.6 34.2-12.8-10.5-5.7-57.7 19.6-63.5 17.7-4 40.4 13.2 41 29.3zM168.2 182.6c-39.7 29-58.7 71.3-62 117.4-1.2 16.5-24.4 18.9-29 3C57.7 236.6 92 165.7 157 140.6c-.5 12.9 3.1 28.6 11.2 42z"/><path class="st2" d="M365.1 149c-2.5 2.9-4.7 6.3-6.4 10.1-14.4-4.5-28.7-7.7-42.9-9.6.4-5.6.3-11.3-.3-16.8h.1c17.8 2.1 34.6 7.8 49.5 16.3z"/><path class="st1" d="M267.1 68.4c6.7 2.8 4.6 12.6-2.6 12.6-63.2-.3-100.8 69.6-67.5 122h-11.5c-19.9-16.6-29.4-41.3-28.5-62.4.9-56.5 58.7-93.4 110.1-72.2z"/><path class="st0" d="M371.9 186.9c4.1-35 30.4-45.2 40.9-33 4.2 4.8 6.8 10.3 7 15.7.5 12.9-13.3 25.2-28.3 31.9-9.8 4.4-20.8-3.8-19.6-14.6z"/><path class="st2" d="M412.9 195c2.8 4.4 1.2 10.2-3.3 12.9-17.9 10.4-39.8 14.8-48.9 7-4.1-3.5-.5-10.1 4.7-8.8 14.1 3.8 36.5-9.2 44.1-16.5 1.1 1.9 2.3 3.6 3.4 5.4zM449.1 278.9v31.3h-16.9c-9.1 26.6-26.4 50.8-50.5 68.4v28.7c0 16.3-13.3 29.6-29.6 29.6h-32.3c-16.3 0-29.6-13.3-29.6-29.6v-1.8h-76.7L202 420.1c-4 5.7-10.7 9.4-18.1 9.4h-5.1c-6.1 0-8.8-6.3-8.8-11.6l-.3-66.3c-.1-11.7 10.4-20.7 22-18.8l30.6 4.9c21.9 3.6 44.4.2 64.2-9.6l74.8-36.8c16.6-8.1 34.8-12.4 53.4-12.4h34.4z"/><path class="st3" d="M315.9 195.6H188.3c-15.3-13.7-23.9-33.1-23.9-53.7 0-39.8 32.3-72.1 72.1-72.1 46 0 80.6 42.9 70.3 88.2-.9 4 1.6 8 5.5 8.8 4 1 8-1.6 8.8-5.5C333.6 106.7 291.9 55 236.3 55c-47.9 0-86.9 39-86.9 86.9 0 19.7 6.6 38.5 18.6 53.7h-11.1c-4.1 0-7.4 3.3-7.4 7.4s3.3 7.4 7.4 7.4H316c4.1 0 7.4-3.3 7.4-7.4 0-4.1-3.4-7.4-7.5-7.4zm-110 195.1c-4.1 0-7.4 3.3-7.4 7.4v9.3c0 4.6-2.1 8.7-5.4 11.4-2.6 2.1-5.8 3.4-9.4 3.4h-32.3c-8.1 0-14.8-6.7-14.8-14.8V375c0-2.4-1.2-4.7-3.1-6.1-72.1-50.5-71.9-155.9-1.7-206.1 3.3-2.3 4.1-7 1.7-10.3-2.3-3.3-7-4.1-10.3-1.7-34.2 24.4-56.3 63.6-58.6 106.7h-5.4c-4.7 0-8.5-3.8-8.5-8.5 0-12.8-10.4-23.2-23.2-23.2-4.1 0-7.4 3.3-7.4 7.4s3.3 7.4 7.4 7.4c4.7 0 8.5 3.8 8.5 8.5 0 12.8 10.4 23.2 23.2 23.2h5.4c2.3 44.3 24.9 82.3 57.2 106.4v28.6c0 16.3 13.3 29.6 29.6 29.6h32.3c11.3 0 21.1-6.3 26.1-15.6 2.3-4.2 3.6-8.9 3.6-14V398c-.1-3.9-3.4-7.3-7.5-7.3zm250.6-172h-24.3c-3.4-9.9-7.8-19.2-13.3-28.2 5.3-6.2 8.7-13.5 8.4-21.4-.8-20.7-27.8-41.2-50-36.1-31.1 7-40.6 61.8-22.6 76.4 12.6 10.3 38 2 53-8.7 5.1 8.7 9.1 17.9 12 27.6 1 3.1 3.8 5.3 7.1 5.3h22.3v62h-22.3c-3.3 0-6.2 2.2-7.1 5.3-8.1 27-25.3 51.3-49.6 68-2.2 1.5-3.3 4-3.3 6.2v32.3c0 8.1-6.7 14.8-14.8 14.8h-32.3c-8.1 0-14.8-6.7-14.8-14.8V398c0-4.1-3.3-7.4-7.4-7.4H242c-4.1 0-7.4 3.3-7.4 7.4 0 3.9 3 7.1 6.9 7.4h48.6v1.8c0 16.3 13.3 29.6 29.6 29.6H352c16.3 0 29.6-13.3 29.6-29.6v-28.7c24.2-17.6 41.4-41.9 50.5-68.4h24.4c4.1 0 7.4-3.3 7.4-7.4V226c0-4-3.3-7.3-7.4-7.3zm-65.6-25.1c-13.1 6.5-24.1 6.8-27 4.4-2.9-2.3-5.2-12.6-2.1-25.7 2.4-10.5 8.7-22.5 18.6-24.8 1 0 9.9-2.6 21.6 6.4 6.2 4.8 10.1 10.8 10.3 15.9.5 7.6-8.2 17.2-21.4 23.8z"/><path class="st3" d="M255.8 5.8C134.6 5.8 33.5 92.2 10.7 206.7h19.9c3-13.8 7.3-27.4 12.9-40.6 11.6-27.4 28.2-52.1 49.4-73.3s45.8-37.8 73.3-49.4c28.4-12 58.6-18.1 89.7-18.1s61.3 6.1 89.7 18.1C373 55 397.7 71.6 418.9 92.8c21.2 21.2 37.8 45.8 49.4 73.3 12 28.4 18.1 58.6 18.1 89.7s-6.1 61.3-18.1 89.7c-11.6 27.4-28.2 52.1-49.4 73.3-21.2 21.2-45.8 37.8-73.3 49.4-28.4 12-58.6 18.1-89.7 18.1s-61.3-6.1-89.7-18.1c-27.4-11.6-52.1-28.2-73.3-49.4-21.2-21.2-37.8-45.8-49.4-73.3-11.2-26.5-17.3-54.6-18-83.5H5.9c3.3 135.2 113.9 243.8 249.9 243.8 138.1 0 250-111.9 250-250s-111.9-250-250-250z"/></svg>