<svg width="38" height="38" fill="none" xmlns="http://www.w3.org/2000/svg"><g clip-path="url(#clip0)"><path d="M34.126 8.468l1.559 2.694c.319.55.178 1.247-.32 1.64l-1.788 1.396a1.265 1.265 0 00-.453 1.299c.55 2.234.579 4.646.007 6.991-.118.49.052 1.002.446 1.314l1.788 1.395c.498.394.631 1.091.32 1.64l-1.56 2.695c-.318.549-.986.779-1.572.541l-2.108-.846a1.26 1.26 0 00-1.351.26 14.446 14.446 0 01-6.042 3.496c-.482.14-.846.549-.912 1.046l-.32 2.25a1.266 1.266 0 01-1.261 1.09h-3.117c-.631 0-1.173-.467-1.262-1.09l-.32-2.25a1.277 1.277 0 00-.912-1.046 14.606 14.606 0 01-6.042-3.496 1.26 1.26 0 00-1.35-.26l-2.108.846a1.264 1.264 0 01-1.574-.541l-1.558-2.695a1.276 1.276 0 01.319-1.64l1.788-1.395c.394-.304.572-.817.453-1.299a14.745 14.745 0 01-.007-6.991 1.285 1.285 0 00-.446-1.314l-1.788-1.395a1.284 1.284 0 01-.32-1.64l1.56-2.695c.318-.549.986-.779 1.573-.541l2.107.846c.46.185.995.089 1.351-.26a14.447 14.447 0 016.042-3.496c.482-.14.846-.549.913-1.046l.319-2.25c.089-.63.623-1.09 1.262-1.09h3.117c.63 0 1.172.467 1.261 1.09l.32 2.25c.066.497.43.905.912 1.046 2.301.668 4.364 1.885 6.042 3.496.356.349.89.445 1.35.26l2.109-.846a1.267 1.267 0 011.573.541z" fill="#71EADE"/><path d="M23.112 8.661C14.398 11.244 9.44 19.78 10.747 28.551c.148 1.003-1.047 1.686-1.833.929a1.26 1.26 0 00-1.351-.26l-2.108.853a1.264 1.264 0 01-1.573-.541l-1.559-2.695a1.264 1.264 0 01.32-1.632l1.788-1.396a1.26 1.26 0 00.453-1.299 14.745 14.745 0 01-.008-6.99 1.285 1.285 0 00-.445-1.315L2.642 12.81a1.268 1.268 0 01-.319-1.633l1.559-2.694c.319-.55.987-.78 1.573-.542l2.108.854c.46.185.994.089 1.35-.26a14.447 14.447 0 016.042-3.496c.482-.14.846-.549.913-1.046l.32-2.249c.088-.63.623-1.09 1.26-1.09h3.118c.63 0 1.173.467 1.262 1.09l.319 2.249c.074.497.43.905.913 1.046 1.9.535 1.826 3.095.052 3.622z" fill="#ADF7EE"/><path d="M19 9.47c5.225 0 9.53 4.305 9.53 9.53s-4.305 9.53-9.53 9.53S9.47 24.225 9.47 19 13.775 9.47 19 9.47z" fill="#ADF7EE"/><path d="M20.618 9.611c-5.678 2.657-9.248 7.994-9.953 13.99A9.4 9.4 0 019.47 19c0-5.848 5.337-10.405 11.148-9.389z" fill="#E8F3FF"/><path d="M36.783 26.192L34.12 30.8a.635.635 0 01-.787.274l-3.919-1.58a.63.63 0 01-.349-.824.63.63 0 01.824-.35l3.407 1.374 2.108-3.652-2.888-2.256a.632.632 0 01-.215-.69 13.985 13.985 0 000-8.186.645.645 0 01.215-.69l2.888-2.257-2.108-3.651-3.407 1.373a.64.64 0 01-.705-.156 13.834 13.834 0 00-7.08-4.09.632.632 0 01-.49-.534L21.1 1.269h-4.216l-.512 3.63a.641.641 0 01-.49.534 13.886 13.886 0 00-7.08 4.09.64.64 0 01-.706.155L4.691 8.305l-2.108 3.652 2.887 2.256a.632.632 0 01.215.69 13.986 13.986 0 000 8.187.645.645 0 01-.215.69l-2.887 2.256 2.108 3.651 3.406-1.373a.64.64 0 01.705.156 13.834 13.834 0 007.08 4.09c.26.06.454.267.49.534l.513 3.63H21.1l.513-3.63a.641.641 0 01.49-.534 13.81 13.81 0 004.208-1.73.638.638 0 01.875.208.632.632 0 01-.207.876 15.078 15.078 0 01-4.164 1.781l-.527 3.756a.64.64 0 01-.63.549h-5.322a.633.633 0 01-.631-.55l-.527-3.755a15.139 15.139 0 01-7-4.045l-3.517 1.418a.632.632 0 01-.787-.275L1.21 26.184a.64.64 0 01.156-.816l2.983-2.338a15.242 15.242 0 010-8.082L1.366 12.61a.623.623 0 01-.156-.817l2.664-4.609c.156-.274.497-.393.787-.274l3.518 1.417a15.138 15.138 0 016.999-4.045l.527-3.755a.64.64 0 01.63-.55h5.322c.32 0 .587.23.631.55l.527 3.755a15.139 15.139 0 016.999 4.045l3.518-1.417c.297-.119.63 0 .787.274l2.664 4.61a.64.64 0 01-.156.816l-2.983 2.338a15.243 15.243 0 010 8.082l2.983 2.338c.252.2.32.55.156.824zm-21.501 2.946c1.21.446 2.471.668 3.726.668 7.852 0 13.107-8.194 9.797-15.348-2.51-5.403-8.944-7.763-14.347-5.255-6.873 3.184-8.431 12.335-2.932 17.605a.628.628 0 00.898-.022.628.628 0 00-.022-.899c-4.846-4.638-3.473-12.72 2.59-15.533 4.765-2.212 10.443-.127 12.655 4.638 2.211 4.765.126 10.443-4.639 12.654a9.478 9.478 0 01-7.288.305.642.642 0 00-.817.378.633.633 0 00.379.81z" fill="#2FA8B8"/></g><defs><clipPath id="clip0"><path fill="#fff" d="M0 0h38v38H0z"/></clipPath></defs></svg>