<svg width="33" height="34" fill="none" xmlns="http://www.w3.org/2000/svg"><g clip-path="url(#clip0)"><path d="M32.452 19.019v3.114c0 .937-.741 1.7-1.65 1.7h-.206v7.298c0 1.249-.986 2.265-2.198 2.265H2.752C1.54 33.396.554 32.38.554 31.13v-21.11c0-1.249.986-2.265 2.198-2.265h2.269V2.304c0-.936.741-1.7 1.65-1.7h9.281c.69 0 1.283.439 1.528 1.056 2.874.85 5.71 1.693 8.533 2.53.877.26 1.38 1.202 1.128 2.105l-.406 1.461h1.663c1.212 0 2.198 1.016 2.198 2.265v7.298h.206c.909 0 1.65.763 1.65 1.7z" fill="#71EADE"/><path d="M17.602 7.756H5.021V2.304c0-.936.741-1.7 1.65-1.7h9.281c.69 0 1.283.439 1.528 1.056.167.418.122.126.122 6.096z" fill="#71EADE"/><path d="M27.141 6.295l-.406 1.461h-9.133c0-5.963.045-5.677-.122-6.096 2.874.85 5.71 1.694 8.533 2.53.87.26 1.38 1.202 1.128 2.105z" fill="#E8F3FF"/><path d="M32.452 19.019v3.114c0 .937-.741 1.7-1.65 1.7h-5.298c-.909 0-1.65-.763-1.65-1.7V19.02c0-.937.741-1.7 1.65-1.7h5.292c.915 0 1.656.763 1.656 1.7zM26.013 4.19c.877.26 1.38 1.202 1.128 2.105l-.406 1.461h-2.114c-1.115-1.069-1.199-2.862-.2-4.037l1.592.471z" fill="#ADF7EE"/><path d="M30.809 19.444h-2.27c-1.443 0-2.616 1.208-2.616 2.696 0 1.361-1.992 1.44-2.063.08-.006-.073 0-3.274 0-3.208 0-.936.742-1.7 1.65-1.7h5.292c1.418.007 1.347 2.132.007 2.132z" fill="#E8F3FF"/><path d="M30.596 10.02c0 1.096-.864 1.986-1.927 1.986h-5.157c-10.402 0-18.84 8.693-18.84 19.41 0 1.097-.863 1.986-1.926 1.986-1.218 0-2.198-1.016-2.198-2.264V10.02c0-1.255.986-2.265 2.198-2.265h25.646c1.218 0 2.204 1.016 2.204 2.265z" fill="#ADF7EE"/><path d="M16.32 3.433H9.423c-.909 0-1.65.764-1.65 1.7v2.623H5.021V2.304c0-.936.741-1.7 1.65-1.7h9.281c.664 0 1.27.412 1.534 1.07.329.843-.284 1.76-1.166 1.76z" fill="#ADF7EE"/><path d="M8.527.604h2.959v7.152H8.527V.604z" fill="#97F2E7"/><path d="M11.48.604V3.44H9.416c-.33 0-.639.1-.896.272V.604h2.958z" fill="#71EADE"/><path d="M19.027 7.756h-1.425c0-5.963.045-5.677-.122-6.096l1.54.458c.013.127.007-.259.007 5.638z" fill="#ADF7EE"/><path d="M31.144 16.78v-6.76c0-1.56-1.231-2.835-2.752-2.835h-.935l.206-.737c.335-1.202-.335-2.457-1.508-2.802l-6.233-1.853a.551.551 0 00-.683.385.573.573 0 00.374.704l3.925 1.162a3.561 3.561 0 00-.013 3.141H12.033V2.73a.556.556 0 00-.547-.564.556.556 0 00-.548.564v4.463H9.08V2.729a.556.556 0 00-.547-.564.556.556 0 00-.548.564v4.463H5.569V2.304c0-.624.496-1.135 1.102-1.135h9.281c.606 0 1.102.511 1.102 1.135V5.42c0 .312.245.564.548.564a.556.556 0 00.548-.564V2.304c0-1.248-.986-2.264-2.198-2.264H6.671c-1.212 0-2.198 1.016-2.198 2.264v4.888h-1.72C1.23 7.192 0 8.46 0 10.02v21.11c0 1.56 1.231 2.836 2.752 2.836h25.646c1.515 0 2.752-1.269 2.752-2.836v-4.144a.556.556 0 00-.548-.564.556.556 0 00-.547.564v4.144c0 .937-.742 1.7-1.65 1.7H2.752c-.909 0-1.65-.764-1.65-1.7v-21.11c0-.937.741-1.7 1.65-1.7h25.646c.909 0 1.65.763 1.65 1.7v6.727h-4.537c-1.212 0-2.198 1.016-2.198 2.264v3.114c0 1.249.986 2.265 2.198 2.265h5.298c1.205 0 2.197-1.016 2.197-2.264v-3.115c-.006-1.122-.812-2.059-1.862-2.231zM24.628 4.37l1.23.365c.587.172.922.803.755 1.4l-.297 1.057h-1.47a2.387 2.387 0 01-.218-2.823zm7.27 17.763c0 .624-.496 1.136-1.102 1.136h-5.292c-.606 0-1.102-.512-1.102-1.136V19.02c0-.624.496-1.136 1.102-1.136h5.292c.606 0 1.102.512 1.102 1.136v3.114zm-4.331-1.554a.556.556 0 01-.548.565h-.825a.556.556 0 01-.548-.565c0-.312.245-.564.548-.564h.825c.303-.007.548.252.548.564z" fill="#2FA8B8"/></g><defs><clipPath id="clip0"><path fill="#fff" d="M0 0h33v34H0z"/></clipPath></defs></svg>